<?xml version="1.0" encoding="UTF-8"?>
<svg id="Layer_1" data-name="Layer 1" xmlns="http://www.w3.org/2000/svg" viewBox="0 0 561.94 229.53">
  <defs>
    <style>
      .cls-1 {
        fill: #B8835A;
      }

      .cls-2 {
        fill: #F5F0E8;
      }
    </style>
  </defs>
  <polygon class="cls-2" points="17.06 214 17.06 210.24 0 196.64 0 229.53 80.1 229.53 17.06 178.37 17.06 141.93 126.09 229.53 173.3 229.53 173.3 185.91 28.32 69.94 51.17 51.36 173.3 149.74 173.3 72.07 86.65 1.41 58.48 24.56 71.28 35.48 87.66 22.34 156.24 78.47 156.24 115.47 51.17 30.95 51.17 0 34.11 13.59 34.11 42.71 2.84 68.85 157.16 196.34 157.16 213.7 132.18 213.7 0 105.27 0 184.76 35.68 214.05 17.06 214"/>
  <g>
    <path d="M262.97,133.1c0,3.28-.53,6.28-1.6,8.99-1.07,2.72-2.57,5.05-4.5,6.99-1.94,1.95-4.26,3.46-6.98,4.53-2.72,1.08-5.73,1.61-9.05,1.61h-16.72v-44.27h16.72c3.32,0,6.34.54,9.05,1.61,2.72,1.08,5.04,2.59,6.98,4.53,1.94,1.95,3.44,4.28,4.5,6.99,1.07,2.72,1.6,5.71,1.6,8.99M255.62,133.1c0-2.54-.34-4.83-1.03-6.86-.69-2.03-1.67-3.74-2.95-5.13-1.28-1.39-2.83-2.46-4.66-3.21-1.82-.75-3.87-1.12-6.15-1.12h-9.5v32.65h9.5c2.27,0,4.32-.37,6.15-1.11s3.38-1.81,4.66-3.21c1.28-1.4,2.27-3.11,2.95-5.13.68-2.02,1.03-4.31,1.03-6.87"/>
    <polygon points="323.1 149.42 323.07 155.23 295.47 155.23 295.47 110.96 323.07 110.96 323.07 116.77 302.69 116.77 302.69 130.11 318.98 130.11 318.98 135.74 302.69 135.74 302.69 149.42 323.1 149.42"/>
    <path d="M378.62,118.52c-.23.37-.46.64-.71.81-.25.17-.55.26-.92.26-.39,0-.83-.16-1.31-.49-.48-.33-1.08-.69-1.78-1.09-.71-.4-1.54-.77-2.51-1.11-.96-.34-2.11-.51-3.44-.51-1.23,0-2.31.15-3.24.46-.93.31-1.72.74-2.35,1.29-.64.55-1.11,1.2-1.43,1.95-.32.75-.48,1.56-.48,2.44,0,1.13.3,2.07.89,2.81.59.75,1.38,1.39,2.35,1.92.97.53,2.08,1,3.33,1.4,1.25.4,2.53.83,3.83,1.28,1.3.45,2.58.96,3.83,1.54,1.25.57,2.36,1.3,3.34,2.18.97.88,1.76,1.96,2.35,3.23.59,1.27.89,2.82.89,4.64,0,1.97-.34,3.81-1.01,5.53-.68,1.72-1.66,3.22-2.94,4.5-1.28,1.28-2.86,2.29-4.73,3.03-1.88.74-4.01,1.11-6.41,1.11-1.42,0-2.79-.14-4.14-.41-1.34-.28-2.62-.67-3.84-1.17-1.22-.5-2.36-1.11-3.43-1.83-1.07-.72-2.02-1.52-2.86-2.4l2.09-3.44c.18-.29.42-.51.71-.68.29-.16.6-.25.95-.25.47,0,.99.22,1.57.66.57.44,1.27.92,2.08,1.45.81.52,1.79,1,2.93,1.45,1.15.44,2.52.66,4.12.66,2.6,0,4.62-.63,6.04-1.91,1.42-1.27,2.14-3.02,2.14-5.26,0-1.25-.3-2.27-.89-3.06s-1.38-1.45-2.35-1.98c-.97-.53-2.09-.98-3.34-1.35-1.25-.37-2.52-.76-3.81-1.18-1.29-.42-2.56-.91-3.81-1.48-1.25-.56-2.36-1.3-3.34-2.21-.97-.91-1.76-2.04-2.35-3.38-.59-1.34-.89-3.02-.89-5.03,0-1.6.31-3.15.94-4.64.62-1.5,1.54-2.82,2.73-3.98,1.2-1.16,2.68-2.09,4.44-2.78,1.76-.7,3.77-1.05,6.03-1.05,2.54,0,4.87.4,6.99,1.2,2.12.8,3.95,1.94,5.49,3.41l-1.75,3.44Z"/>
    <rect x="413.61" y="110.96" width="7.22" height="44.27"/>
    <path d="M492.18,133.43v17.52c-4.41,3.18-9.53,4.77-15.37,4.77-3.59,0-6.83-.56-9.73-1.68-2.9-1.12-5.38-2.67-7.42-4.67-2.05-2-3.63-4.38-4.74-7.15-1.1-2.77-1.66-5.81-1.66-9.13s.53-6.4,1.6-9.18c1.07-2.78,2.59-5.17,4.58-7.16,1.99-2,4.39-3.55,7.19-4.64,2.81-1.1,5.96-1.64,9.47-1.64,1.78,0,3.44.14,4.97.42,1.53.28,2.95.66,4.26,1.15,1.31.49,2.52,1.09,3.63,1.78,1.11.7,2.12,1.48,3.04,2.34l-2.06,3.29c-.33.51-.75.83-1.26.95-.51.12-1.07,0-1.66-.37-.59-.35-1.22-.72-1.89-1.11-.67-.39-1.43-.75-2.29-1.09-.86-.34-1.85-.61-2.98-.83-1.13-.21-2.46-.32-4-.32-2.34,0-4.44.38-6.32,1.15-1.88.77-3.48,1.86-4.81,3.29-1.33,1.42-2.36,3.15-3.07,5.18-.72,2.03-1.08,4.29-1.08,6.79,0,2.64.38,5.01,1.14,7.09.76,2.08,1.83,3.84,3.23,5.29,1.39,1.44,3.08,2.55,5.06,3.3,1.98.76,4.19,1.14,6.62,1.14,1.82,0,3.45-.19,4.87-.58,1.42-.39,2.82-.93,4.2-1.63v-8.79h-6.18c-.47,0-.84-.13-1.1-.38-.27-.26-.4-.59-.4-1v-4.09h14.17Z"/>
    <path d="M561.94,110.96v44.27h-3.66c-.55,0-1.03-.1-1.41-.29-.39-.2-.76-.52-1.11-.97l-24.32-31.23c.06.6.11,1.18.14,1.77.03.58.05,1.12.05,1.61v29.11h-6.33v-44.27h3.75c.31,0,.57.02.78.05.21.03.42.09.6.17.18.08.36.2.52.37.16.17.34.37.52.61l24.35,31.27c-.06-.64-.11-1.26-.14-1.88-.03-.61-.05-1.19-.05-1.72v-28.87h6.3Z"/>
    <path d="M238.84,184.74c2.83,0,5.25.27,7.26.82s3.66,1.32,4.95,2.32c1.29,1.01,2.24,2.23,2.84,3.67.6,1.44.91,3.07.91,4.87,0,1.05-.16,2.05-.48,3.03-.32.97-.81,1.89-1.47,2.74-.67.85-1.5,1.61-2.51,2.29-1.01.68-2.19,1.24-3.57,1.69,6.27,1.33,9.41,4.66,9.41,9.99,0,1.89-.35,3.61-1.06,5.18-.71,1.57-1.73,2.92-3.07,4.06s-3,2.02-4.96,2.66c-1.97.64-4.21.95-6.73.95h-16.23v-44.27h14.73ZM231.31,190.37v13.83h7.19c3.07,0,5.37-.59,6.89-1.78,1.52-1.19,2.27-2.9,2.27-5.13,0-2.44-.71-4.2-2.14-5.29-1.42-1.09-3.65-1.63-6.69-1.63h-7.53ZM240.22,223.32c1.62,0,2.99-.19,4.1-.57,1.12-.38,2.03-.9,2.74-1.55.71-.65,1.22-1.43,1.54-2.32.32-.89.48-1.85.48-2.87,0-2.09-.71-3.73-2.14-4.93-1.42-1.2-3.67-1.8-6.75-1.8h-8.88v14.05h8.92Z"/>
    <path d="M306.32,223.2c1.7,0,3.22-.29,4.56-.86,1.34-.57,2.48-1.37,3.41-2.4.93-1.02,1.64-2.26,2.14-3.7.49-1.45.74-3.05.74-4.81v-26.68h7.16v26.68c0,2.6-.41,5.01-1.24,7.22-.83,2.21-2.02,4.12-3.58,5.73-1.56,1.61-3.45,2.87-5.67,3.78-2.22.91-4.73,1.37-7.51,1.37s-5.29-.46-7.52-1.37c-2.22-.91-4.11-2.17-5.67-3.78-1.56-1.61-2.75-3.52-3.58-5.73-.83-2.21-1.24-4.62-1.24-7.22v-26.68h7.19v26.65c0,1.76.25,3.37.74,4.81.49,1.45,1.2,2.68,2.12,3.72.92,1.04,2.05,1.84,3.4,2.41,1.34.58,2.86.86,4.57.86"/>
    <rect x="358.92" y="184.74" width="7.22" height="44.27"/>
    <polygon points="426.83 222.99 426.83 229.01 401.25 229.01 401.25 184.74 408.44 184.74 408.44 222.99 426.83 222.99"/>
    <path d="M496.46,206.88c0,3.28-.53,6.28-1.6,8.99-1.07,2.72-2.57,5.05-4.5,6.99-1.94,1.95-4.26,3.46-6.98,4.53-2.72,1.08-5.73,1.61-9.05,1.61h-16.72v-44.27h16.72c3.32,0,6.34.54,9.05,1.61,2.72,1.08,5.04,2.59,6.98,4.53,1.94,1.95,3.44,4.28,4.5,6.99,1.07,2.72,1.6,5.71,1.6,8.99M489.11,206.88c0-2.54-.34-4.83-1.03-6.86-.69-2.03-1.67-3.74-2.95-5.13-1.28-1.39-2.83-2.46-4.66-3.21-1.82-.75-3.87-1.12-6.15-1.12h-9.5v32.65h9.5c2.27,0,4.32-.37,6.15-1.11,1.82-.74,3.38-1.81,4.66-3.21,1.28-1.4,2.26-3.11,2.95-5.13.69-2.02,1.03-4.31,1.03-6.87"/>
    <path class="cls-1" d="M224.42,32.43h8.73c.9,0,1.65.21,2.26.62.6.41,1,.95,1.18,1.63l6.15,23.36c.2.76.41,1.57.61,2.43.2.86.36,1.76.46,2.71.21-.96.43-1.87.68-2.72.25-.85.48-1.65.71-2.41l7.26-23.36c.19-.57.58-1.09,1.18-1.55.6-.46,1.34-.69,2.2-.69h3.07c.9,0,1.65.2,2.23.6.59.4.99.95,1.21,1.64l7.19,23.36c.22.72.46,1.48.71,2.29.25.81.46,1.68.65,2.6.16-.9.33-1.76.51-2.58.17-.82.35-1.59.54-2.31l6.15-23.36c.16-.59.55-1.12,1.17-1.57.62-.45,1.35-.68,2.21-.68h8.18l-13.83,44.79h-9.41l-8.42-27.76c-.14-.43-.29-.9-.45-1.41-.15-.51-.3-1.06-.45-1.63-.14.57-.29,1.12-.45,1.63-.15.51-.3.98-.45,1.41l-8.55,27.76h-9.41l-13.83-44.79Z"/>
    <path class="cls-1" d="M362.45,54.81c0,3.24-.56,6.25-1.67,9.04-1.12,2.79-2.69,5.21-4.72,7.27s-4.47,3.67-7.33,4.84c-2.86,1.17-6.03,1.75-9.51,1.75s-6.66-.58-9.53-1.75c-2.87-1.17-5.32-2.78-7.36-4.84-2.04-2.06-3.62-4.48-4.73-7.27-1.12-2.79-1.68-5.8-1.68-9.04s.56-6.25,1.68-9.04,2.69-5.21,4.73-7.26c2.04-2.05,4.49-3.66,7.36-4.83,2.87-1.17,6.05-1.75,9.53-1.75s6.66.59,9.51,1.77c2.86,1.18,5.3,2.79,7.33,4.84,2.03,2.05,3.6,4.47,4.72,7.26,1.12,2.79,1.67,5.79,1.67,9.01M351.82,54.81c0-2.21-.29-4.21-.86-5.98-.57-1.77-1.4-3.28-2.47-4.5-1.08-1.23-2.39-2.17-3.95-2.83-1.56-.66-3.33-.98-5.32-.98s-3.8.33-5.37.98c-1.57.66-2.89,1.6-3.97,2.83-1.07,1.23-1.9,2.73-2.47,4.5-.57,1.77-.86,3.77-.86,5.98s.29,4.24.86,6.01c.57,1.77,1.4,3.27,2.47,4.5,1.08,1.23,2.4,2.17,3.97,2.81,1.57.65,3.36.97,5.37.97s3.76-.32,5.32-.97c1.56-.65,2.87-1.58,3.95-2.81,1.08-1.23,1.9-2.73,2.47-4.5.57-1.77.86-3.78.86-6.01"/>
    <polygon class="cls-1" points="422.71 32.43 422.71 40.67 410.1 40.67 410.1 77.22 399.71 77.22 399.71 40.67 387.11 40.67 387.11 32.43 422.71 32.43"/>
    <path class="cls-1" d="M470.23,69.01c1.39,0,2.64-.23,3.73-.69,1.1-.46,2.02-1.12,2.78-1.98.76-.86,1.34-1.91,1.74-3.15.4-1.24.6-2.65.6-4.23v-26.53h10.39v26.53c0,2.75-.45,5.27-1.34,7.56-.89,2.3-2.17,4.27-3.83,5.93-1.66,1.66-3.68,2.95-6.05,3.87-2.38.92-5.05,1.38-8.02,1.38s-5.68-.46-8.06-1.38c-2.38-.92-4.39-2.21-6.05-3.87-1.66-1.66-2.93-3.64-3.81-5.93-.88-2.29-1.32-4.82-1.32-7.56v-26.53h10.39v26.5c0,1.58.2,2.99.6,4.23.4,1.24.98,2.3,1.74,3.17.76.87,1.69,1.54,2.78,2,1.1.46,2.34.69,3.74.69"/>
  </g>
</svg>