<svg width="563" height="234" viewBox="0 0 563 234" fill="none" xmlns="http://www.w3.org/2000/svg">
<g clip-path="url(#clip0_2_43)">
<path d="M17.72 216.17V212.4L0.660004 198.81V231.7H80.76L17.72 180.53V144.1L126.75 231.7H173.96V188.08L28.99 72.11L51.83 53.53L173.96 151.91V74.24L87.31 3.58001L59.14 26.72L71.94 37.65L88.32 24.51L156.91 80.63V117.64L51.83 33.12V2.17001L34.77 15.76V44.87L3.5 71.02L157.82 198.5V215.86H132.85L0.660004 107.44V186.93L36.34 216.21L17.72 216.17Z" fill="#DD2C42"/>
<path d="M263.63 135.26C263.63 138.54 263.1 141.54 262.03 144.25C260.96 146.97 259.46 149.3 257.53 151.24C255.59 153.19 253.27 154.7 250.55 155.77C247.83 156.85 244.82 157.38 241.5 157.38H224.78V113.11H241.5C244.82 113.11 247.84 113.65 250.55 114.72C253.27 115.8 255.59 117.31 257.53 119.25C259.47 121.2 260.97 123.53 262.03 126.24C263.1 128.96 263.63 131.95 263.63 135.23M256.29 135.26C256.29 132.72 255.95 130.43 255.26 128.4C254.57 126.37 253.59 124.66 252.31 123.27C251.03 121.88 249.48 120.81 247.65 120.06C245.83 119.31 243.78 118.94 241.5 118.94H232V151.59H241.5C243.77 151.59 245.82 151.22 247.65 150.48C249.48 149.74 251.03 148.67 252.31 147.27C253.59 145.87 254.58 144.16 255.26 142.14C255.94 140.12 256.29 137.83 256.29 135.27" fill="white"/>
<path d="M323.76 151.59L323.73 157.4H296.13V113.13H323.73V118.94H303.35V132.28H319.65V137.91H303.35V151.59H323.76Z" fill="white"/>
<path d="M379.28 120.69C379.05 121.06 378.82 121.33 378.57 121.5C378.32 121.67 378.02 121.76 377.65 121.76C377.26 121.76 376.82 121.6 376.34 121.27C375.86 120.94 375.26 120.58 374.56 120.18C373.85 119.78 373.02 119.41 372.05 119.07C371.09 118.73 369.94 118.56 368.61 118.56C367.38 118.56 366.3 118.71 365.37 119.02C364.44 119.33 363.65 119.76 363.02 120.31C362.38 120.86 361.91 121.51 361.59 122.26C361.27 123.01 361.11 123.82 361.11 124.7C361.11 125.83 361.41 126.77 362 127.51C362.59 128.26 363.38 128.9 364.35 129.43C365.32 129.96 366.43 130.43 367.68 130.83C368.93 131.23 370.21 131.66 371.51 132.11C372.81 132.56 374.09 133.07 375.34 133.65C376.59 134.22 377.7 134.95 378.68 135.83C379.65 136.71 380.44 137.79 381.03 139.06C381.62 140.33 381.92 141.88 381.92 143.7C381.92 145.67 381.58 147.51 380.91 149.23C380.23 150.95 379.25 152.45 377.97 153.73C376.69 155.01 375.11 156.02 373.24 156.76C371.36 157.5 369.23 157.87 366.83 157.87C365.41 157.87 364.04 157.73 362.69 157.46C361.35 157.18 360.07 156.79 358.85 156.29C357.63 155.79 356.49 155.18 355.42 154.46C354.35 153.74 353.4 152.94 352.56 152.06L354.65 148.62C354.83 148.33 355.07 148.11 355.36 147.94C355.65 147.78 355.96 147.69 356.31 147.69C356.78 147.69 357.3 147.91 357.88 148.35C358.45 148.79 359.15 149.27 359.96 149.8C360.77 150.32 361.75 150.8 362.89 151.25C364.04 151.69 365.41 151.91 367.01 151.91C369.61 151.91 371.63 151.28 373.05 150C374.47 148.73 375.19 146.98 375.19 144.74C375.19 143.49 374.89 142.47 374.3 141.68C373.71 140.89 372.92 140.23 371.95 139.7C370.98 139.17 369.86 138.72 368.61 138.35C367.36 137.98 366.09 137.59 364.8 137.17C363.51 136.75 362.24 136.26 360.99 135.69C359.74 135.13 358.63 134.39 357.65 133.48C356.68 132.57 355.89 131.44 355.3 130.1C354.71 128.76 354.41 127.08 354.41 125.07C354.41 123.47 354.72 121.92 355.35 120.43C355.97 118.93 356.89 117.61 358.08 116.45C359.28 115.29 360.76 114.36 362.52 113.67C364.28 112.97 366.29 112.62 368.55 112.62C371.09 112.62 373.42 113.02 375.54 113.82C377.66 114.62 379.49 115.76 381.03 117.23L379.28 120.67V120.69Z" fill="white"/>
<path d="M421.49 113.13H414.27V157.4H421.49V113.13Z" fill="white"/>
<path d="M492.84 135.6V153.12C488.43 156.3 483.31 157.89 477.47 157.89C473.88 157.89 470.64 157.33 467.74 156.21C464.84 155.09 462.36 153.54 460.32 151.54C458.27 149.54 456.69 147.16 455.58 144.39C454.48 141.62 453.92 138.58 453.92 135.26C453.92 131.94 454.45 128.86 455.52 126.08C456.59 123.3 458.11 120.91 460.1 118.92C462.09 116.92 464.49 115.37 467.29 114.28C470.1 113.18 473.25 112.64 476.76 112.64C478.54 112.64 480.2 112.78 481.73 113.06C483.26 113.34 484.68 113.72 485.99 114.21C487.3 114.7 488.51 115.3 489.62 115.99C490.73 116.69 491.74 117.47 492.66 118.33L490.6 121.62C490.27 122.13 489.85 122.45 489.34 122.57C488.83 122.69 488.27 122.57 487.68 122.2C487.09 121.85 486.46 121.48 485.79 121.09C485.12 120.7 484.36 120.34 483.5 120C482.64 119.66 481.65 119.39 480.52 119.17C479.39 118.96 478.06 118.85 476.52 118.85C474.18 118.85 472.08 119.23 470.2 120C468.32 120.77 466.72 121.86 465.39 123.29C464.06 124.71 463.03 126.44 462.32 128.47C461.6 130.5 461.24 132.76 461.24 135.26C461.24 137.9 461.62 140.27 462.38 142.35C463.14 144.43 464.21 146.19 465.61 147.64C467 149.08 468.69 150.19 470.67 150.94C472.65 151.7 474.86 152.08 477.29 152.08C479.11 152.08 480.74 151.89 482.16 151.5C483.58 151.11 484.98 150.57 486.36 149.87V141.08H480.18C479.71 141.08 479.34 140.95 479.08 140.7C478.81 140.44 478.68 140.11 478.68 139.7V135.61H492.85L492.84 135.6Z" fill="white"/>
<path d="M562.6 113.13V157.4H558.94C558.39 157.4 557.91 157.3 557.53 157.11C557.14 156.91 556.77 156.59 556.42 156.14L532.1 124.91C532.16 125.51 532.21 126.09 532.24 126.68C532.27 127.26 532.29 127.8 532.29 128.29V157.4H525.96V113.13H529.71C530.02 113.13 530.28 113.15 530.49 113.18C530.7 113.21 530.91 113.27 531.09 113.35C531.27 113.43 531.45 113.55 531.61 113.72C531.77 113.89 531.95 114.09 532.13 114.33L556.48 145.6C556.42 144.96 556.37 144.34 556.34 143.72C556.31 143.11 556.29 142.53 556.29 142V113.13H562.59H562.6Z" fill="white"/>
<path d="M239.5 186.91C242.33 186.91 244.75 187.18 246.76 187.73C248.77 188.28 250.42 189.05 251.71 190.05C253 191.06 253.95 192.28 254.55 193.72C255.15 195.16 255.46 196.79 255.46 198.59C255.46 199.64 255.3 200.64 254.98 201.62C254.66 202.59 254.17 203.51 253.51 204.36C252.84 205.21 252.01 205.97 251 206.65C249.99 207.33 248.81 207.89 247.43 208.34C253.7 209.67 256.84 213 256.84 218.33C256.84 220.22 256.49 221.94 255.78 223.51C255.07 225.08 254.05 226.43 252.71 227.57C251.37 228.71 249.71 229.59 247.75 230.23C245.78 230.87 243.54 231.18 241.02 231.18H224.79V186.91H239.52H239.5ZM231.97 192.53V206.36H239.16C242.23 206.36 244.53 205.77 246.05 204.58C247.57 203.39 248.32 201.68 248.32 199.45C248.32 197.01 247.61 195.25 246.18 194.16C244.76 193.07 242.53 192.53 239.49 192.53H231.96H231.97ZM240.88 225.49C242.5 225.49 243.87 225.3 244.98 224.92C246.1 224.54 247.01 224.02 247.72 223.37C248.43 222.72 248.94 221.94 249.26 221.05C249.58 220.16 249.74 219.2 249.74 218.18C249.74 216.09 249.03 214.45 247.6 213.25C246.18 212.05 243.93 211.45 240.85 211.45H231.97V225.5H240.89L240.88 225.49Z" fill="white"/>
<path d="M306.98 225.37C308.68 225.37 310.2 225.08 311.54 224.51C312.88 223.94 314.02 223.14 314.95 222.11C315.88 221.09 316.59 219.85 317.09 218.41C317.58 216.96 317.83 215.36 317.83 213.6V186.92H324.99V213.6C324.99 216.2 324.58 218.61 323.75 220.82C322.92 223.03 321.73 224.94 320.17 226.55C318.61 228.16 316.72 229.42 314.5 230.33C312.28 231.24 309.77 231.7 306.99 231.7C304.21 231.7 301.7 231.24 299.47 230.33C297.25 229.42 295.36 228.16 293.8 226.55C292.24 224.94 291.05 223.03 290.22 220.82C289.39 218.61 288.98 216.2 288.98 213.6V186.92H296.17V213.57C296.17 215.33 296.42 216.94 296.91 218.38C297.4 219.83 298.11 221.06 299.03 222.1C299.95 223.14 301.08 223.94 302.43 224.51C303.77 225.09 305.29 225.37 307 225.37" fill="white"/>
<path d="M366.8 186.91H359.58V231.18H366.8V186.91Z" fill="white"/>
<path d="M427.49 225.15V231.18H401.91V186.91H409.1V225.15H427.49Z" fill="white"/>
<path d="M497.12 209.04C497.12 212.32 496.59 215.32 495.52 218.03C494.45 220.75 492.95 223.08 491.02 225.02C489.08 226.97 486.76 228.48 484.04 229.55C481.32 230.63 478.31 231.16 474.99 231.16H458.27V186.89H474.99C478.31 186.89 481.33 187.43 484.04 188.5C486.76 189.58 489.08 191.09 491.02 193.03C492.96 194.98 494.46 197.31 495.52 200.02C496.59 202.74 497.12 205.73 497.12 209.01M489.77 209.04C489.77 206.5 489.43 204.21 488.74 202.18C488.05 200.15 487.07 198.44 485.79 197.05C484.51 195.66 482.96 194.59 481.13 193.84C479.31 193.09 477.26 192.72 474.98 192.72H465.48V225.37H474.98C477.25 225.37 479.3 225 481.13 224.26C482.95 223.52 484.51 222.45 485.79 221.05C487.07 219.65 488.05 217.94 488.74 215.92C489.43 213.9 489.77 211.61 489.77 209.05" fill="white"/>
<path d="M225.08 34.59H233.81C234.71 34.59 235.46 34.8 236.07 35.21C236.67 35.62 237.07 36.16 237.25 36.84L243.4 60.2C243.6 60.96 243.81 61.77 244.01 62.63C244.21 63.49 244.37 64.39 244.47 65.34C244.68 64.38 244.9 63.47 245.15 62.62C245.4 61.77 245.63 60.97 245.86 60.21L253.12 36.85C253.31 36.28 253.7 35.76 254.3 35.3C254.9 34.84 255.64 34.61 256.5 34.61H259.57C260.47 34.61 261.22 34.81 261.8 35.21C262.39 35.61 262.79 36.16 263.01 36.85L270.2 60.21C270.42 60.93 270.66 61.69 270.91 62.5C271.16 63.31 271.37 64.18 271.56 65.1C271.72 64.2 271.89 63.34 272.07 62.52C272.24 61.7 272.42 60.93 272.61 60.21L278.76 36.85C278.92 36.26 279.31 35.73 279.93 35.28C280.55 34.83 281.28 34.6 282.14 34.6H290.32L276.49 79.39H267.08L258.66 51.63C258.52 51.2 258.37 50.73 258.21 50.22C258.06 49.71 257.91 49.16 257.76 48.59C257.62 49.16 257.47 49.71 257.31 50.22C257.16 50.73 257.01 51.2 256.86 51.63L248.31 79.39H238.9L225.07 34.6L225.08 34.59Z" fill="white"/>
<path d="M363.11 56.97C363.11 60.21 362.55 63.22 361.44 66.01C360.32 68.8 358.75 71.22 356.72 73.28C354.69 75.34 352.25 76.95 349.39 78.12C346.53 79.29 343.36 79.87 339.88 79.87C336.4 79.87 333.22 79.29 330.35 78.12C327.48 76.95 325.03 75.34 322.99 73.28C320.95 71.22 319.37 68.8 318.26 66.01C317.14 63.22 316.58 60.21 316.58 56.97C316.58 53.73 317.14 50.72 318.26 47.93C319.38 45.14 320.95 42.72 322.99 40.67C325.03 38.62 327.48 37.01 330.35 35.84C333.22 34.67 336.4 34.09 339.88 34.09C343.36 34.09 346.54 34.68 349.39 35.86C352.25 37.04 354.69 38.65 356.72 40.7C358.75 42.75 360.32 45.17 361.44 47.96C362.56 50.75 363.11 53.75 363.11 56.97ZM352.48 56.97C352.48 54.76 352.19 52.76 351.62 50.99C351.05 49.22 350.22 47.71 349.15 46.49C348.07 45.26 346.76 44.32 345.2 43.66C343.64 43 341.87 42.68 339.88 42.68C337.89 42.68 336.08 43.01 334.51 43.66C332.94 44.32 331.62 45.26 330.54 46.49C329.47 47.72 328.64 49.22 328.07 50.99C327.5 52.76 327.21 54.76 327.21 56.97C327.21 59.18 327.5 61.21 328.07 62.98C328.64 64.75 329.47 66.25 330.54 67.48C331.62 68.71 332.94 69.65 334.51 70.29C336.08 70.94 337.87 71.26 339.88 71.26C341.89 71.26 343.64 70.94 345.2 70.29C346.76 69.64 348.07 68.71 349.15 67.48C350.23 66.25 351.05 64.75 351.62 62.98C352.19 61.21 352.48 59.2 352.48 56.97Z" fill="white"/>
<path d="M423.37 34.59V42.83H410.76V79.39H400.37V42.83H387.77V34.59H423.37Z" fill="white"/>
<path d="M470.9 71.18C472.29 71.18 473.54 70.95 474.63 70.49C475.73 70.03 476.65 69.37 477.41 68.51C478.17 67.65 478.75 66.6 479.15 65.36C479.55 64.12 479.75 62.71 479.75 61.13V34.6H490.14V61.13C490.14 63.88 489.69 66.4 488.8 68.69C487.91 70.99 486.63 72.96 484.97 74.62C483.31 76.28 481.29 77.57 478.92 78.49C476.54 79.41 473.87 79.87 470.9 79.87C467.93 79.87 465.22 79.41 462.84 78.49C460.46 77.57 458.45 76.28 456.79 74.62C455.13 72.96 453.86 70.98 452.98 68.69C452.1 66.4 451.66 63.87 451.66 61.13V34.6H462.05V61.1C462.05 62.68 462.25 64.09 462.65 65.33C463.05 66.57 463.63 67.63 464.39 68.5C465.15 69.37 466.08 70.04 467.17 70.5C468.27 70.96 469.51 71.19 470.91 71.19" fill="white"/>
</g>
<defs>
<clipPath id="clip0_2_43">
<rect width="562.87" height="233.89" fill="white"/>
</clipPath>
</defs>
</svg>
